<?xml version="1.0" standalone="no"?>
<!DOCTYPE svg PUBLIC "-//W3C//DTD SVG 20010904//EN"
 "http://www.w3.org/TR/2001/REC-SVG-20010904/DTD/svg10.dtd">
<svg version="1.0" xmlns="http://www.w3.org/2000/svg"
 width="500.000000pt" height="500.000000pt" viewBox="0 0 500.000000 500.000000"
 preserveAspectRatio="xMidYMid meet">
<metadata>
Created by potrace 1.16, written by Peter Selinger 2001-2019
</metadata>
<g transform="translate(0.000000,500.000000) scale(0.100000,-0.100000)"
fill="#000000" stroke="none">
<path d="M1494 3342 c-23 -15 -34 -53 -34 -122 0 -67 -1 -71 -27 -82 -16 -6
-57 -24 -92 -39 -42 -19 -80 -29 -113 -29 -45 0 -55 5 -101 45 l-51 44 -70
-68 -69 -69 41 -48 c39 -44 42 -51 42 -106 0 -38 -7 -72 -19 -96 -10 -20 -25
-57 -32 -81 -7 -23 -18 -45 -23 -46 -6 -2 -46 -7 -89 -10 -47 -4 -83 -12 -92
-22 -21 -21 -21 -175 0 -197 15 -15 60 -24 143 -29 l43 -2 34 -85 c26 -63 35
-100 35 -145 0 -56 -2 -61 -42 -102 l-42 -43 69 -70 70 -70 45 40 c42 37 49
39 108 40 37 0 75 -6 92 -15 16 -8 50 -22 77 -31 26 -9 51 -21 55 -28 4 -6 8
-39 8 -74 0 -61 11 -99 34 -114 6 -4 47 -8 92 -8 104 0 112 8 121 119 7 89 8
91 86 115 18 6 17 7 -2 34 l-20 28 -142 -4 c-158 -5 -218 4 -317 49 -113 51
-218 176 -258 308 -22 72 -19 313 5 384 42 129 136 238 253 295 91 44 166 55
324 50 l135 -5 19 28 20 27 -28 10 c-15 6 -37 13 -48 17 -19 5 -22 15 -28 95
-9 112 -18 120 -126 120 -41 0 -80 -4 -86 -8z"/>
</g>
</svg>
